# xmcd
#
# Track frame offsets: 
#        150
#        12840
#        26329
#        33922
#        45050
#        58874
#        75249
#        89178
#        100808
#        115137
#
# Disc length: 1745 seconds
#
# Revision: 0
# Processed by: cddbd v1.5.2PL0 Copyright (c) Steve Scherf et al.
# Submitted via: ExactAudioCopy v1.3
#
DISCID=6906cf0a
DTITLE=Troy Wilson - Let Me Butter Your Biscuits
DYEAR=2020
DGENRE=Blues
TTITLE0=Pay Day
TTITLE1=Complicate
TTITLE2=Please Don’t Holler Mama
TTITLE3=Saint Louis Blues
TTITLE4=When the Levee Breaks
TTITLE5=Some Old Day, I’ll Be Waiting
TTITLE6=Take Me Back, Babe
TTITLE7=Chocolate Day
TTITLE8=Let Me Butter Your Biscuits
TTITLE9=Honey Babe
EXTD=
EXTT0=
EXTT1=
EXTT2=
EXTT3=
EXTT4=
EXTT5=
EXTT6=
EXTT7=
EXTT8=
EXTT9=
PLAYORDER=
